<?xml version="1.0" encoding="iso-8859-1"?>
<!-- Generator: Adobe Illustrator 19.0.0, SVG Export Plug-In . SVG Version: 6.00 Build 0)  -->
<svg version="1.1" id="Layer_1" xmlns="http://www.w3.org/2000/svg" xmlns:xlink="http://www.w3.org/1999/xlink" x="0px" y="0px"
	 viewBox="0 0 512.001 512.001" style="enable-background:new 0 0 512.001 512.001;" xml:space="preserve">
<g>
	<g>
		<g>
			<path d="M139.9,54.891C54.937,54.891,0,248.489,0,317.211c0,77.142,62.758,139.9,139.9,139.9
				c76.707,0,139.914-61.777,139.914-139.9C279.815,249.263,225.186,54.891,139.9,54.891z M98.775,281.611
				c-2.901,14.451-4.566,27.423-4.566,35.593c0,9.967-8.08,18.047-18.047,18.047c-9.967,0-18.047-8.08-18.047-18.047
				c0-10.757,1.824-25.523,5.273-42.699c1.962-9.771,11.465-16.103,21.246-14.14C94.406,262.328,100.737,271.84,98.775,281.611z
				 M153.262,147.717c-4.116,4.529-18.801,22.664-34.961,65.919c-3.485,9.325-13.87,14.079-23.223,10.59
				c-9.336-3.489-14.078-13.885-10.589-23.223c17.268-46.219,33.764-68.435,42.061-77.563c6.703-7.375,18.117-7.92,25.493-1.218
				C159.421,128.928,159.964,140.341,153.262,147.717z"/>
			<path d="M298.217,182.602c-4.497-0.847-8.238,3.44-6.813,7.788c15.227,46.511,24.505,94.16,24.505,126.821
				c0,49.861-20.656,96.039-55.935,128.784c-4.177,3.878-1.048,10.859,4.631,10.373c78.575-6.721,247.396-59.659,247.396-139.158
				C512,244.978,374.783,197.016,298.217,182.602z M444.665,329.34c-6.709,7.381-18.124,7.918-25.493,1.219
				c-4.53-4.116-22.669-18.801-65.921-34.961c-9.336-3.489-14.078-13.885-10.589-23.223c3.488-9.337,13.885-14.075,23.221-10.589
				c46.217,17.268,68.433,33.763,77.563,42.061C450.823,310.551,451.369,321.964,444.665,329.34z"/>
		</g>
	</g>
</g>
<g>
</g>
<g>
</g>
<g>
</g>
<g>
</g>
<g>
</g>
<g>
</g>
<g>
</g>
<g>
</g>
<g>
</g>
<g>
</g>
<g>
</g>
<g>
</g>
<g>
</g>
<g>
</g>
<g>
</g>
</svg>
